<svg width="100px" height="57px" viewBox="0 0 78 66.35025457358053" xmlns="http://www.w3.org/2000/svg">
  <defs id="SvgjsDefs1404"></defs>
  <g id="SvgjsG1405" featurekey="symbolFeature-0" transform="matrix(-0.845409, 0, 0, -0.845409, 81.27047, 75.44519)" fill="#0881a3">
    <path xmlns="http://www.w3.org/2000/svg" d="M59.154,83.751" style="fill: rgb(234, 179, 8);"></path>
    <path xmlns="http://www.w3.org/2000/svg" d="M72.528,72.157l-2.672-1.507c-0.072,0.109-0.173,0.199-0.307,0.241L57.03,74.802l1.019,2.377L72.528,72.157z" style="fill: rgb(234, 179, 8);"></path>
    <polygon xmlns="http://www.w3.org/2000/svg" points="68.622,69.953 64.273,67.5 52.861,71.114 53.982,74.527 " style="fill: rgb(234, 179, 8);"></polygon>
    <path xmlns="http://www.w3.org/2000/svg" d="M52.866,74.875l-1.12-3.409l-9.245,2.928c-0.038,0.012-0.078,0.01-0.117,0.018l0.095,3.708L52.866,74.875z" style="fill: rgb(234, 179, 8);"></path>
    <polygon xmlns="http://www.w3.org/2000/svg" points="81.3,71.795 85.71,67.613 85.326,66.577 67.818,56.601 60.549,64.271 77.247,73.475 " style="fill: rgb(234, 179, 8);"></polygon>
    <polygon xmlns="http://www.w3.org/2000/svg" points="50.536,67.784 42.279,70.272 42.354,73.211 51.38,70.353 " style="fill: rgb(234, 179, 8);"></polygon>
    <path xmlns="http://www.w3.org/2000/svg" d="M31.458,26.691l6.867,2.606l2.377-3.643c0.177-0.27,0.538-0.345,0.81-0.17c0.271,0.177,0.346,0.539,0.17,0.81L30.845,42.903  c-0.239,0.365-0.395,0.786-0.454,1.218l-1.772,13.135c-0.107,0.803,0.122,1.625,0.633,2.254l1.826,2.252  c0.476,0.587,1.159,0.969,1.909,1.068l3.256,0.428c0.32,0.042,0.546,0.336,0.504,0.656c-0.039,0.294-0.29,0.509-0.579,0.509  c-0.026,0-3.336-0.434-3.336-0.434c-1.05-0.138-1.996-0.668-2.664-1.491l-1.824-2.249c-0.716-0.883-1.036-2.023-0.884-3.15  l1.772-13.134c0.08-0.603,0.299-1.192,0.632-1.702l3.237-4.96l-1.647-1.235l-4.143,7.47l-1.082,17.979l5.69,5.7l9.731,2.02  l8.52-2.566l-0.513-1.56l-4.053-2.146l-6.69,0.451c-0.455,0.031-0.888-0.201-1.114-0.597l-2.278-3.985  c-0.205-0.357-0.211-0.787-0.018-1.15c0.192-0.363,0.552-0.598,0.962-0.63l1.611-0.124c-0.044-0.12,1.166-4.959,1.166-4.959  c0.033-0.169,0.106-0.335,0.214-0.478c0,0,9.71-12.994,9.735-13.016l2.903-2.475l0.738,0.174c0.322,0.076,0.654-0.08,0.802-0.376  l1.214-2.427l0.628,0.419l-1.466,3.141L56,38.084l-0.963,1.124c-0.006-0.007-0.012-0.015-0.018-0.022l-1.743-2.094l-1.959,7.373  l5.732,5.975l1.802-1.201l-4.209-3.971c-0.161-0.152-0.277-0.346-0.335-0.561l-0.868-3.218l0.575-1.292  c0.131-0.297,0.478-0.426,0.773-0.297c0.295,0.131,0.429,0.477,0.297,0.773l-0.406,0.913l0.759,2.819l4.429,4.159l2.878-1.919  l-3.59-2.056c-0.128-0.073-0.239-0.172-0.326-0.29l-2.571-3.454c-0.094-0.126-0.118-0.29-0.065-0.438l0.476-1.321  c0.093-0.257,0.384-0.381,0.633-0.268l5.095,2.301c0.568,0.257,1.234,0.152,1.696-0.266l0.837-0.757  c0.377-0.341,0.565-0.844,0.505-1.349l-0.396-3.303c-0.081-0.673-0.584-1.217-1.249-1.35l-8.311-1.662L43.33,25.142l-5.523-6.635  c-0.254-0.306-0.657-0.445-1.046-0.362l-4.06,0.87c-0.049,0.01-0.098-0.003-0.148,0.001l-3.139,5.735L31.458,26.691z M48.868,33.704  l-4.657,5.514c-0.115,0.137-0.281,0.207-0.447,0.207c-0.134,0-0.267-0.045-0.377-0.138c-0.247-0.209-0.279-0.578-0.07-0.825  l4.657-5.514c0.209-0.247,0.579-0.278,0.824-0.069C49.045,33.088,49.077,33.457,48.868,33.704z" style="fill: rgb(234, 179, 8);"></path>
    <path xmlns="http://www.w3.org/2000/svg" d="M80.55,62.505l3.075-4.495c0.097-0.144-10.329-5.324-10.329-5.324L72.15,52.03l-3.503,3.696L80.55,62.505z" style="fill: rgb(234, 179, 8);"></path>
    <polygon xmlns="http://www.w3.org/2000/svg" points="62.879,66.714 62.61,66.562 59.523,65.076 51.656,67.447 52.495,70.001 " style="fill: rgb(234, 179, 8);"></polygon>
    <polygon xmlns="http://www.w3.org/2000/svg" points="49.13,40.47 40.395,52.192 39.593,56.19 49.157,40.678 " style="fill: rgb(234, 179, 8);"></polygon>
    <path xmlns="http://www.w3.org/2000/svg" d="M52.949,51.382c-0.072,0.2-0.197,0.377-0.36,0.513l-0.937,0.782l0.589,0.968l3.819-2.547l-2.188-2.281L52.949,51.382z" style="fill: rgb(234, 179, 8);"></path>
    <polygon xmlns="http://www.w3.org/2000/svg" points="55.184,56.606 61.92,52.133 59.724,50.062 52.849,54.645 52.909,54.743 " style="fill: rgb(234, 179, 8);"></polygon>
    <path xmlns="http://www.w3.org/2000/svg" d="M38.327,58.084l-1.771,0.137l2.259,4.016l1.15-0.076l7.708-13.08c0.163-0.279,0.523-0.37,0.801-0.207  c0.279,0.164,0.371,0.523,0.207,0.801l-2.958,5.019l3.993,1.727l1.607-2.017l-0.671-1.084c-0.311-0.502-0.202-1.165,0.25-1.543  l0.938-0.782c0,0,1.116-3.038,1.158-3.089l-2.033-2.119l-0.017,0.065c-0.07,0.262-0.306,0.435-0.566,0.435  c-0.049,0-0.099-0.006-0.15-0.019c-0.313-0.083-0.498-0.403-0.416-0.716l2.086-7.849L50.146,39.2l0.174,1.309  c0.037,0.267-0.022,0.546-0.166,0.782c0,0-8.024,13.363-10.071,16.178c-0.333,0.458-0.862,0.079-0.862,0.079  C39.022,57.847,38.699,58.056,38.327,58.084z" style="fill: rgb(234, 179, 8);"></path>
    <path xmlns="http://www.w3.org/2000/svg" d="M17.863,64.767c-0.199-0.235-0.297-0.535-0.277-0.843l0.056-0.871l-3.285,1.729c-0.173,0.091-0.363,0.137-0.554,0.137  c-0.137,0-0.273-0.023-0.405-0.07c-0.313-0.113-0.567-0.355-0.696-0.663L8.566,54.24l-1.101,0.438l6.165,13.436l4.718-2.768  L17.863,64.767z" style="fill: rgb(234, 179, 8);"></path>
    <polygon xmlns="http://www.w3.org/2000/svg" points="43.009,61.959 46.228,56.188 45.124,55.71 41.378,62.067 43.009,61.96 " style="fill: rgb(234, 179, 8);"></polygon>
    <path xmlns="http://www.w3.org/2000/svg" d="M60.74,49.384l1.983,1.862c0.267,0.251,0.403,0.605,0.373,0.969c-0.031,0.364-0.223,0.689-0.528,0.892l-6.709,4.473  c-0.202,0.135-0.433,0.201-0.662,0.201c-0.267,0-0.534-0.091-0.754-0.271l-2.27-1.857c-0.073-0.06-0.127-0.135-0.183-0.208  l-5.367,6.733l3.571,1.884c0.275,0.147,0.479,0.389,0.575,0.683l0.522,1.588l7.958-2.397l11.856-12.505l-7.227-4.139L60.74,49.384z" style="fill: rgb(234, 179, 8);"></path>
    <polygon xmlns="http://www.w3.org/2000/svg" points="48.961,57.369 47.308,56.654 44.399,61.868 45.429,61.8 " style="fill: rgb(234, 179, 8);"></polygon>
    <polygon xmlns="http://www.w3.org/2000/svg" points="22.352,37.652 24.232,38.759 30.416,27.316 28.832,25.813 " style="fill: rgb(234, 179, 8);"></polygon>
    <path xmlns="http://www.w3.org/2000/svg" d="M31.708,82.626l0.154,0.126l9.562,0.787l-0.1-4.17l-13.301-3.096l-1.222,2.362C28.17,79.747,29.801,81.073,31.708,82.626z" style="fill: rgb(234, 179, 8);"></path>
    <path xmlns="http://www.w3.org/2000/svg" d="M41.295,78.161l-0.093-3.882L30.58,72.042c-0.217-0.045-0.418-0.151-0.579-0.306l-7.698-7.353l-2.164,1.269l7.891,9.417  L41.295,78.161z" style="fill: rgb(234, 179, 8);"></path>
    <path xmlns="http://www.w3.org/2000/svg" d="M28.535,23.918l2.928-5.35L20.506,10.95c-0.572-0.398-1.365-0.151-1.611,0.5l-1.055,2.789l1.732,1.172L28.535,23.918z" style="fill: rgb(234, 179, 8);"></path>
    <path xmlns="http://www.w3.org/2000/svg" d="M21.752,63.35c0-0.015-0.008-0.028-0.008-0.043l0.601-20.787c0.005-0.181,0.054-0.365,0.141-0.53l1.189-2.201l-1.886-1.109  l-1.585,2.896L18.755,64l0.623,0.743L21.752,63.35z" style="fill: rgb(234, 179, 8);"></path>
    <path xmlns="http://www.w3.org/2000/svg" d="M9.819,43.081l10.305-3.797l1.309-2.391l-10.602,3.529C10.384,41.616,10.058,42.477,9.819,43.081z" style="fill: rgb(234, 179, 8);"></path>
    <path xmlns="http://www.w3.org/2000/svg" d="M6.663,49.664c-0.099-0.242-0.118-0.498-0.056-0.742c0.987-3.972,10.887-30.261,11.824-32.885l-1.015-0.677L5.055,48.732  c-0.086,0.257-0.071,0.538,0.043,0.784l1.88,4.097l1.14-0.454L6.663,49.664z" style="fill: rgb(234, 179, 8);"></path>
    <path xmlns="http://www.w3.org/2000/svg" d="M94.423,63.654c0,0-9.715-5.203-9.84-5.019l-3.014,4.451l4.326,2.464c0.239,0.137,0.424,0.352,0.523,0.607l0.389,1.014  c0.174,0.452,0.058,0.959-0.293,1.292c0,0-4.63,4.357-4.765,4.413l-4.034,1.681c-0.149,0.062-0.304,0.092-0.459,0.092  c-0.201,0-0.402-0.051-0.584-0.154l-2.784-1.57c0,0-15.688,5.437-15.817,5.437c-0.464,0-0.905-0.274-1.098-0.722l-1.066-2.487  l-1.559,0.487l3.144,9.567c0,0,1.603-0.545,1.631-0.557c0,0,23.871-10.403,23.903-10.414l3.871-1.252  c0.125-0.04,7.79-7.624,7.79-7.624C95.198,64.849,95.065,63.988,94.423,63.654z" style="fill: rgb(234, 179, 8);"></path>
    <path xmlns="http://www.w3.org/2000/svg" d="M51.239,80.229c-0.263,0-0.502-0.177-0.568-0.443c-0.078-0.313,0.112-0.631,0.426-0.709l2.91-0.728l-0.776-2.36  l-10.721,3.35l0.106,4.149c0.008,0.338-0.128,0.665-0.374,0.897c-0.222,0.209-0.515,0.325-0.818,0.325  c-0.032,0-9.652-0.791-9.652-0.791c-0.241-0.021-0.465-0.11-0.649-0.26c0,0-10.023-8.125-10.112-8.187  c-0.262-0.185-0.33-0.548-0.15-0.812c0.182-0.264,0.538-0.336,0.803-0.159c0.148,0.099,1.562,1.235,4.208,3.382l1.14-2.205  l-7.902-9.423l-4.99,2.927l3.671,7.999c0.077,0.168,13.509,9.908,13.509,9.908c0.138,0.1,14.141,2.206,14.303,2.151l10.781-3.658  l-2.011-6.12C54.374,79.463,51.286,80.229,51.239,80.229z" style="fill: rgb(234, 179, 8);"></path>
    <path xmlns="http://www.w3.org/2000/svg" d="M30.811,70.892l10.363,2.185l-0.066-2.758l-9.415-1.951c-0.23-0.047-0.438-0.16-0.602-0.326l-5.555-5.555l-2.177,1.277  L30.811,70.892z" style="fill: rgb(234, 179, 8);"></path>
    <path xmlns="http://www.w3.org/2000/svg" d="M19.033,41.51c0.011-0.179,0.236-0.664,0.236-0.664L9.082,44.599c-0.201,0.415-0.681,1.954-1.341,4.608l1.464,3.519  l9.344-3.72L19.033,41.51z" style="fill: rgb(234, 179, 8);"></path>
    <polygon xmlns="http://www.w3.org/2000/svg" points="25.242,39.352 27.543,40.706 34.071,28.935 31.414,27.928 " style="fill: rgb(234, 179, 8);"></polygon>
    <polygon xmlns="http://www.w3.org/2000/svg" points="18.466,50.299 9.655,53.807 12.541,60.744 17.988,57.707 " style="fill: rgb(234, 179, 8);"></polygon>
    <polygon xmlns="http://www.w3.org/2000/svg" points="37.67,30.3 35.177,29.355 32.027,35.034 33.742,36.32 " style="fill: rgb(234, 179, 8);"></polygon>
    <polygon xmlns="http://www.w3.org/2000/svg" points="17.731,61.683 17.898,59.096 12.993,61.831 13.785,63.735 " style="fill: rgb(234, 179, 8);"></polygon>
    <path xmlns="http://www.w3.org/2000/svg" d="M26.975,41.731l-2.29-1.347l-1.168,2.161l-0.582,20.112l2.13-1.249l1.076-17.931c0.011-0.18,0.063-0.355,0.149-0.509  L26.975,41.731z" style="fill: rgb(234, 179, 8);"></path>
    <path xmlns="http://www.w3.org/2000/svg" d="M11.358,39.013l10.901-3.629l5.695-10.405l-8.57-8.133C18.222,20.099,13.958,32.014,11.358,39.013z" style="fill: rgb(234, 179, 8);"></path>
  </g>
</svg>